<?xml version="1.0" encoding="utf-8"?>
<!-- Generator: Adobe Illustrator 22.0.0, SVG Export Plug-In . SVG Version: 6.00 Build 0)  -->
<svg version="1.1" id="Layer_1" xmlns="http://www.w3.org/2000/svg" xmlns:xlink="http://www.w3.org/1999/xlink" x="0px" y="0px"
	 viewBox="0 0 2500 2500" style="enable-background:new 0 0 2500 2500;" xml:space="preserve">
<path d="M2391.1,857c155.6,526.9-778.3,1240.5-1165.3,1448.5c-137.7,74-413.2,142.1-659.4-79.7s-375-719.3-375-719.3
	s-162-487.6-75.8-807.6s354.5-412.5,510.4-425.1C1063.8,238.2,2235.5,330.1,2391.1,857z M1721.6,1272.1c0-98-14.1-185.2-42.4-261.7
	c-28.4-76.5-67.7-141.6-118.2-195.1c-50.5-53.6-111-94.5-181.4-122.8c-70.4-28.3-147.7-42.5-231.8-42.5
	c-87.3,0-168.4,14.6-243.3,43.6c-75,29.1-140,70-195.2,122.8c-55.1,52.8-98.7,117.1-130.8,192.8c-32.1,75.8-48.2,160.4-48.2,253.7
	c0,96.4,16.4,182.1,49.4,257.1c32.8,75,78,138.2,135.4,189.4c57.4,51.3,124.3,90.3,200.9,117.1c76.5,26.8,157.6,40.2,243.3,40.2
	c116.3,0,218.4-21.1,306.4-63.1c88-42.1,158.8-102.2,212.4-180.2L1416.3,1458c-26.1,35.2-59.7,63.9-101,86.1
	c-41.3,22.2-91.8,33.3-151.5,33.3c-33.7,0-66.2-5.4-97.5-16c-31.4-10.7-59.7-25.6-84.9-44.8c-25.3-19.1-45.9-41.7-62-67.7
	c-16-25.9-25.6-55-28.7-87.2h828.7c1.5-13.8,2.3-28.3,2.3-43.6V1272.1 M890.6,1127.4c1.5-29.1,9.2-57,22.9-83.8
	c13.8-26.7,32.1-50.1,55.1-70c22.9-19.9,49.7-35.6,80.3-47.1c30.6-11.4,64.3-17.1,101-17.1c75,0,131.2,21.4,168.7,64.2
	c37.5,42.9,56.2,94.1,56.2,153.8H890.6z"/>
</svg>
